SplineFontDB: 3.2
FontName: EightPixelsFontBold
FullName: Eight Pixels Font Bold
FamilyName: EightPixelsFont
Weight: Bold
Copyright: MounirTohami
Version: 001.000
ItalicAngle: 0
UnderlinePosition: -149
UnderlineWidth: 49
Ascent: 1000
Descent: 0
InvalidEm: 0
sfntRevision: 0x00010000
LayerCount: 2
Layer: 0 1 "Back" 1
Layer: 1 1 "Fore" 0
XUID: [1021 465 1097079576 16998]
StyleMap: 0x0040
FSType: 0
OS2Version: 1
OS2_WeightWidthSlopeOnly: 0
OS2_UseTypoMetrics: 0
CreationTime: 1280473793
ModificationTime: 1709671973
PfmFamily: 17
TTFWeight: 500
TTFWidth: 5
LineGap: 250
VLineGap: 0
Panose: 2 0 6 3 0 0 0 0 0 0
OS2TypoAscent: 1000
OS2TypoAOffset: 0
OS2TypoDescent: 0
OS2TypoDOffset: 0
OS2TypoLinegap: 250
OS2WinAscent: 1000
OS2WinAOffset: 0
OS2WinDescent: 250
OS2WinDOffset: 0
HheadAscent: 1000
HheadAOffset: 0
HheadDescent: 0
HheadDOffset: 0
OS2SubXSize: 649
OS2SubYSize: 699
OS2SubXOff: 0
OS2SubYOff: 140
OS2SupXSize: 649
OS2SupYSize: 699
OS2SupXOff: 0
OS2SupYOff: 479
OS2StrikeYSize: 50
OS2StrikeYPos: 259
OS2Vendor: '2ttf'
OS2CodePages: 00000001.00000000
OS2UnicodeRanges: 00000003.00000000.00000000.00000000
MarkAttachClasses: 1
DEI: 91125
ShortTable: cvt  2
  34
  648
EndShort
ShortTable: maxp 16
  1
  0
  99
  48
  5
  0
  0
  2
  0
  1
  1
  0
  64
  46
  0
  0
EndShort
LangName: 1033 "" "" "" "MounirTohami:EightPixelsFontBold" "" "" "" "" "" "Mounir Tohami" "This font was created using PixelForge and Edited with FontForge for final release." "https://mounirtohami.itch.io/eight-pixels-font-bold" "https://mounirtohami.itch.io" "SIL Open Font License (OFL)" "https://openfontlicense.org/"
GaspTable: 1 65535 0 0
Encoding: UnicodeBmp
UnicodeInterp: none
NameList: AGL For New Fonts
DisplaySize: -36
AntiAlias: 1
FitToEm: 0
WinInfo: 25 25 17
BeginPrivate: 0
EndPrivate
BeginChars: 65539 99

StartChar: .notdef
Encoding: 65536 -1 0
Width: 730
GlyphClass: 1
Flags: W
LayerCount: 2
Fore
SplineSet
66 0 m 1,0,-1
 66 1332 l 1,1,-1
 598 1332 l 1,2,-1
 598 0 l 1,3,-1
 66 0 l 1,0,-1
133 66 m 1,4,-1
 531 66 l 1,5,-1
 531 1266 l 1,6,-1
 133 1266 l 1,7,-1
 133 66 l 1,4,-1
EndSplineSet
EndChar

StartChar: exclam
Encoding: 33 33 4
Width: 375
GlyphClass: 2
Flags: W
LayerCount: 2
Fore
SplineSet
125 0 m 1,0,-1
 0 0 l 1,1,-1
 0 125 l 1,2,-1
 0 250 l 1,3,-1
 125 250 l 1,4,-1
 250 250 l 1,5,-1
 250 125 l 1,6,-1
 250 0 l 1,7,-1
 125 0 l 1,0,-1
125 375 m 1,8,-1
 0 375 l 1,9,-1
 0 500 l 1,10,-1
 0 625 l 1,11,-1
 0 750 l 1,12,-1
 0 875 l 1,13,-1
 0 1000 l 1,14,-1
 125 1000 l 1,15,-1
 250 1000 l 1,16,-1
 250 875 l 1,17,-1
 250 750 l 1,18,-1
 250 625 l 1,19,-1
 250 500 l 1,20,-1
 250 375 l 1,21,-1
 125 375 l 1,8,-1
EndSplineSet
EndChar

StartChar: quotedbl
Encoding: 34 34 5
Width: 750
GlyphClass: 2
Flags: W
LayerCount: 2
Fore
SplineSet
375 750 m 1,0,1
 375 750 375 750 375 1000 c 1,2,3
 375 1000 375 1000 625 1000 c 1,4,5
 625 1000 625 1000 625 750 c 1,6,-1
 375 750 l 1,0,1
0 750 m 1,7,8
 0 750 0 750 0 1000 c 1,9,10
 0 1000 0 1000 250 1000 c 1,11,12
 250 1000 250 1000 250 750 c 1,13,14
 250 750 250 750 0 750 c 1,7,8
EndSplineSet
EndChar

StartChar: numbersign
Encoding: 35 35 6
Width: 1000
GlyphClass: 2
Flags: W
LayerCount: 2
Fore
SplineSet
750 0 m 1,0,1
 750 0 750 0 500 0 c 1,2,-1
 500 125 l 1,3,-1
 375 125 l 1,4,-1
 375 0 l 1,5,6
 375 0 375 0 125 0 c 1,7,-1
 125 125 l 1,8,-1
 0 125 l 1,9,10
 0 125 0 125 0 375 c 1,11,-1
 125 375 l 1,12,13
 125 375 125 375 125 625 c 1,14,-1
 0 625 l 1,15,16
 0 625 0 625 0 875 c 1,17,-1
 125 875 l 1,18,-1
 125 1000 l 1,19,20
 125 1000 125 1000 375 1000 c 1,21,-1
 375 875 l 1,22,-1
 500 875 l 1,23,-1
 500 1000 l 1,24,25
 500 1000 500 1000 750 1000 c 1,26,-1
 750 875 l 1,27,-1
 875 875 l 1,28,29
 875 875 875 875 875 625 c 1,30,-1
 750 625 l 1,31,32
 750 625 750 625 750 375 c 1,33,-1
 875 375 l 1,34,35
 875 375 875 375 875 125 c 1,36,-1
 750 125 l 1,37,-1
 750 0 l 1,0,1
375 625 m 1,38,39
 375 625 375 625 375 375 c 1,40,-1
 500 375 l 1,41,42
 500 375 500 375 500 625 c 1,43,-1
 375 625 l 1,38,39
EndSplineSet
EndChar

StartChar: dollar
Encoding: 36 36 7
Width: 750
GlyphClass: 2
Flags: W
LayerCount: 2
Fore
SplineSet
250 0 m 1,0,-1
 250 125 l 1,1,2
 250 125 250 125 0 125 c 1,3,4
 0 125 0 125 0 375 c 1,5,6
 0 375 0 375 250 375 c 1,7,-1
 250 500 l 1,8,9
 250 500 250 500 0 500 c 1,10,11
 0 500 0 500 0 750 c 1,12,-1
 125 750 l 1,13,-1
 125 875 l 1,14,-1
 250 875 l 1,15,-1
 250 1000 l 1,16,-1
 375 1000 l 1,17,-1
 375 875 l 1,18,19
 375 875 375 875 625 875 c 1,20,21
 625 875 625 875 625 625 c 1,22,23
 625 625 625 625 375 625 c 1,24,-1
 375 500 l 1,25,26
 375 500 375 500 625 500 c 1,27,-1
 625 250 l 1,28,-1
 500 250 l 1,29,-1
 500 125 l 1,30,-1
 375 125 l 1,31,-1
 375 0 l 1,32,-1
 250 0 l 1,0,-1
EndSplineSet
EndChar

StartChar: percent
Encoding: 37 37 8
Width: 1000
GlyphClass: 2
Flags: W
LayerCount: 2
Fore
SplineSet
625 0 m 1,0,1
 625 0 625 0 625 250 c 1,2,3
 625 250 625 250 875 250 c 1,4,5
 875 250 875 250 875 0 c 1,6,-1
 625 0 l 1,0,1
125 0 m 1,7,8
 125 0 125 0 125 250 c 1,9,-1
 250 250 l 1,10,11
 250 250 250 250 250 500 c 1,12,-1
 375 500 l 1,13,14
 375 500 375 500 375 750 c 1,15,-1
 500 750 l 1,16,17
 500 750 500 750 500 1000 c 1,18,19
 500 1000 500 1000 750 1000 c 1,20,21
 750 1000 750 1000 750 750 c 1,22,-1
 625 750 l 1,23,24
 625 750 625 750 625 500 c 1,25,-1
 500 500 l 1,26,-1
 500 250 l 1,27,-1
 375 250 l 1,28,29
 375 250 375 250 375 0 c 1,30,31
 375 0 375 0 125 0 c 1,7,8
0 750 m 1,32,33
 0 750 0 750 0 1000 c 1,34,35
 0 1000 0 1000 250 1000 c 1,36,37
 250 1000 250 1000 250 750 c 1,38,39
 250 750 250 750 0 750 c 1,32,33
EndSplineSet
EndChar

StartChar: ampersand
Encoding: 38 38 9
Width: 1000
GlyphClass: 2
Flags: W
LayerCount: 2
Fore
SplineSet
625 0 m 1,0,-1
 625 125 l 1,1,-1
 500 125 l 1,2,-1
 500 0 l 1,3,4
 500 0 500 0 125 0 c 1,5,-1
 125 125 l 1,6,-1
 0 125 l 1,7,8
 0 125 0 125 0 500 c 1,9,-1
 125 500 l 1,10,-1
 125 625 l 1,11,-1
 0 625 l 1,12,13
 0 625 0 625 0 875 c 1,14,-1
 125 875 l 1,15,-1
 125 1000 l 1,16,17
 125 1000 125 1000 500 1000 c 1,18,-1
 500 875 l 1,19,-1
 625 875 l 1,20,21
 625 875 625 875 625 625 c 1,22,-1
 500 625 l 1,23,-1
 500 500 l 1,24,-1
 625 500 l 1,25,-1
 625 375 l 1,26,-1
 750 375 l 1,27,-1
 750 250 l 1,28,-1
 875 250 l 1,29,30
 875 250 875 250 875 0 c 1,31,-1
 625 0 l 1,0,-1
375 250 m 1,32,-1
 375 375 l 1,33,-1
 250 375 l 1,34,-1
 250 250 l 1,35,-1
 375 250 l 1,32,-1
750 375 m 1,36,-1
 750 500 l 1,37,-1
 875 500 l 1,38,-1
 875 375 l 1,39,-1
 750 375 l 1,36,-1
375 625 m 1,40,-1
 375 750 l 1,41,-1
 250 750 l 1,42,-1
 250 625 l 1,43,-1
 375 625 l 1,40,-1
EndSplineSet
EndChar

StartChar: quotesingle
Encoding: 39 39 10
Width: 375
GlyphClass: 2
Flags: W
LayerCount: 2
Fore
SplineSet
0 750 m 1,0,1
 0 750 0 750 0 1000 c 1,2,3
 0 1000 0 1000 250 1000 c 1,4,5
 250 1000 250 1000 250 750 c 1,6,-1
 0 750 l 1,0,1
EndSplineSet
EndChar

StartChar: parenleft
Encoding: 40 40 11
Width: 500
GlyphClass: 2
Flags: W
LayerCount: 2
Fore
SplineSet
125 0 m 1,0,-1
 125 125 l 1,1,-1
 0 125 l 1,2,3
 0 125 0 125 0 875 c 1,4,-1
 125 875 l 1,5,-1
 125 1000 l 1,6,7
 125 1000 125 1000 375 1000 c 1,8,9
 375 1000 375 1000 375 750 c 1,10,-1
 250 750 l 1,11,12
 250 750 250 750 250 250 c 1,13,-1
 375 250 l 1,14,15
 375 250 375 250 375 0 c 1,16,-1
 125 0 l 1,0,-1
EndSplineSet
EndChar

StartChar: parenright
Encoding: 41 41 12
Width: 500
GlyphClass: 2
Flags: W
LayerCount: 2
Fore
SplineSet
0 0 m 1,0,1
 0 0 0 0 0 250 c 1,2,-1
 125 250 l 1,3,4
 125 250 125 250 125 750 c 1,5,-1
 0 750 l 1,6,7
 0 750 0 750 0 1000 c 1,8,9
 0 1000 0 1000 250 1000 c 1,10,-1
 250 875 l 1,11,-1
 375 875 l 1,12,13
 375 875 375 875 375 125 c 1,14,-1
 250 125 l 1,15,-1
 250 0 l 1,16,-1
 0 0 l 1,0,1
EndSplineSet
EndChar

StartChar: asterisk
Encoding: 42 42 13
Width: 750
GlyphClass: 2
Flags: W
LayerCount: 2
Fore
SplineSet
375 375 m 1,0,1
 375 375 375 375 375 625 c 1,2,3
 375 625 375 625 625 625 c 1,4,5
 625 625 625 625 625 375 c 1,6,-1
 375 375 l 1,0,1
0 375 m 1,7,8
 0 375 0 375 0 625 c 1,9,10
 0 625 0 625 250 625 c 1,11,12
 250 625 250 625 250 375 c 1,13,14
 250 375 250 375 0 375 c 1,7,8
250 625 m 1,15,-1
 250 750 l 1,16,-1
 375 750 l 1,17,-1
 375 625 l 1,18,-1
 250 625 l 1,15,-1
375 750 m 1,19,20
 375 750 375 750 375 1000 c 1,21,22
 375 1000 375 1000 625 1000 c 1,23,24
 625 1000 625 1000 625 750 c 1,25,26
 625 750 625 750 375 750 c 1,19,20
250 750 m 1,27,28
 250 750 250 750 0 750 c 1,29,30
 0 750 0 750 0 1000 c 1,31,32
 0 1000 0 1000 250 1000 c 1,33,34
 250 1000 250 1000 250 750 c 1,27,28
EndSplineSet
EndChar

StartChar: plus
Encoding: 43 43 14
Width: 875
GlyphClass: 2
Flags: W
LayerCount: 2
Fore
SplineSet
250 125 m 1,0,1
 250 125 250 125 250 375 c 1,2,3
 250 375 250 375 0 375 c 1,4,5
 0 375 0 375 0 625 c 1,6,7
 0 625 0 625 250 625 c 1,8,9
 250 625 250 625 250 875 c 1,10,11
 250 875 250 875 500 875 c 1,12,13
 500 875 500 875 500 625 c 1,14,15
 500 625 500 625 750 625 c 1,16,17
 750 625 750 625 750 375 c 1,18,19
 750 375 750 375 500 375 c 1,20,21
 500 375 500 375 500 125 c 1,22,-1
 250 125 l 1,0,1
EndSplineSet
EndChar

StartChar: comma
Encoding: 44 44 15
Width: 375
GlyphClass: 2
Flags: W
LayerCount: 2
Fore
SplineSet
125 0 m 1,0,-1
 125 125 l 1,1,-1
 0 125 l 1,2,-1
 0 375 l 1,3,4
 0 375 0 375 250 375 c 1,5,-1
 250 0 l 1,6,-1
 125 0 l 1,0,-1
EndSplineSet
EndChar

StartChar: hyphen
Encoding: 45 45 16
Width: 625
GlyphClass: 2
Flags: W
LayerCount: 2
Fore
SplineSet
0 375 m 1,0,1
 0 375 0 375 0 625 c 1,2,3
 0 625 0 625 500 625 c 1,4,5
 500 625 500 625 500 375 c 1,6,-1
 0 375 l 1,0,1
EndSplineSet
EndChar

StartChar: period
Encoding: 46 46 17
Width: 375
GlyphClass: 2
Flags: W
LayerCount: 2
Fore
SplineSet
0 0 m 1,0,1
 0 0 0 0 0 250 c 1,2,3
 0 250 0 250 250 250 c 1,4,5
 250 250 250 250 250 0 c 1,6,-1
 0 0 l 1,0,1
EndSplineSet
EndChar

StartChar: slash
Encoding: 47 47 18
Width: 750
GlyphClass: 2
Flags: W
LayerCount: 2
Fore
SplineSet
0 0 m 1,0,1
 0 0 0 0 0 250 c 1,2,-1
 125 250 l 1,3,4
 125 250 125 250 125 500 c 1,5,-1
 250 500 l 1,6,7
 250 500 250 500 250 750 c 1,8,-1
 375 750 l 1,9,10
 375 750 375 750 375 1000 c 1,11,12
 375 1000 375 1000 625 1000 c 1,13,14
 625 1000 625 1000 625 750 c 1,15,-1
 500 750 l 1,16,17
 500 750 500 750 500 500 c 1,18,-1
 375 500 l 1,19,20
 375 500 375 500 375 250 c 1,21,-1
 250 250 l 1,22,23
 250 250 250 250 250 0 c 1,24,-1
 0 0 l 1,0,1
EndSplineSet
EndChar

StartChar: zero
Encoding: 48 48 19
Width: 750
GlyphClass: 2
Flags: W
LayerCount: 2
Fore
SplineSet
125 0 m 1,0,-1
 125 125 l 1,1,-1
 0 125 l 1,2,3
 0 125 0 125 0 875 c 1,4,-1
 125 875 l 1,5,-1
 125 1000 l 1,6,7
 125 1000 125 1000 500 1000 c 1,8,-1
 500 875 l 1,9,-1
 625 875 l 1,10,11
 625 875 625 875 625 125 c 1,12,-1
 500 125 l 1,13,-1
 500 0 l 1,14,-1
 125 0 l 1,0,-1
375 250 m 1,15,16
 375 250 375 250 375 750 c 1,17,-1
 250 750 l 1,18,19
 250 750 250 750 250 250 c 1,20,-1
 375 250 l 1,15,16
EndSplineSet
EndChar

StartChar: one
Encoding: 49 49 20
Width: 625
GlyphClass: 2
Flags: W
LayerCount: 2
Fore
SplineSet
0 0 m 1,0,1
 0 0 0 0 0 250 c 1,2,-1
 125 250 l 1,3,4
 125 250 125 250 125 625 c 1,5,-1
 0 625 l 1,6,7
 0 625 0 625 0 875 c 1,8,-1
 125 875 l 1,9,-1
 125 1000 l 1,10,11
 125 1000 125 1000 375 1000 c 1,12,13
 375 1000 375 1000 375 250 c 1,14,-1
 500 250 l 1,15,16
 500 250 500 250 500 0 c 1,17,-1
 0 0 l 1,0,1
EndSplineSet
EndChar

StartChar: two
Encoding: 50 50 21
Width: 750
GlyphClass: 2
Flags: W
LayerCount: 2
Fore
SplineSet
0 0 m 1,0,1
 0 0 0 0 0 375 c 1,2,-1
 125 375 l 1,3,-1
 125 500 l 1,4,-1
 250 500 l 1,5,-1
 250 625 l 1,6,-1
 375 625 l 1,7,-1
 375 750 l 1,8,9
 375 750 375 750 0 750 c 1,10,11
 0 750 0 750 0 1000 c 1,12,13
 0 1000 0 1000 500 1000 c 1,14,-1
 500 875 l 1,15,-1
 625 875 l 1,16,17
 625 875 625 875 625 500 c 1,18,-1
 500 500 l 1,19,-1
 500 375 l 1,20,-1
 375 375 l 1,21,-1
 375 250 l 1,22,23
 375 250 375 250 625 250 c 1,24,25
 625 250 625 250 625 0 c 1,26,-1
 0 0 l 1,0,1
EndSplineSet
EndChar

StartChar: three
Encoding: 51 51 22
Width: 750
GlyphClass: 2
Flags: W
LayerCount: 2
Fore
SplineSet
0 0 m 1,0,1
 0 0 0 0 0 250 c 1,2,3
 0 250 0 250 375 250 c 1,4,-1
 375 375 l 1,5,6
 375 375 375 375 125 375 c 1,7,8
 125 375 125 375 125 625 c 1,9,10
 125 625 125 625 375 625 c 1,11,-1
 375 750 l 1,12,13
 375 750 375 750 0 750 c 1,14,15
 0 750 0 750 0 1000 c 1,16,17
 0 1000 0 1000 500 1000 c 1,18,-1
 500 875 l 1,19,-1
 625 875 l 1,20,21
 625 875 625 875 625 125 c 1,22,-1
 500 125 l 1,23,-1
 500 0 l 1,24,-1
 0 0 l 1,0,1
EndSplineSet
EndChar

StartChar: four
Encoding: 52 52 23
Width: 750
GlyphClass: 2
Flags: W
LayerCount: 2
Fore
SplineSet
375 0 m 1,0,1
 375 0 375 0 375 250 c 1,2,3
 375 250 375 250 125 250 c 1,4,-1
 125 375 l 1,5,-1
 0 375 l 1,6,7
 0 375 0 375 0 1000 c 1,8,9
 0 1000 0 1000 250 1000 c 1,10,11
 250 1000 250 1000 250 500 c 1,12,-1
 375 500 l 1,13,14
 375 500 375 500 375 1000 c 1,15,16
 375 1000 375 1000 625 1000 c 1,17,18
 625 1000 625 1000 625 0 c 1,19,-1
 375 0 l 1,0,1
EndSplineSet
EndChar

StartChar: five
Encoding: 53 53 24
Width: 750
GlyphClass: 2
Flags: W
LayerCount: 2
Fore
SplineSet
0 0 m 1,0,1
 0 0 0 0 0 250 c 1,2,3
 0 250 0 250 375 250 c 1,4,-1
 375 375 l 1,5,6
 375 375 375 375 0 375 c 1,7,8
 0 375 0 375 0 1000 c 1,9,10
 0 1000 0 1000 625 1000 c 1,11,12
 625 1000 625 1000 625 750 c 1,13,14
 625 750 625 750 250 750 c 1,15,-1
 250 625 l 1,16,17
 250 625 250 625 500 625 c 1,18,-1
 500 500 l 1,19,-1
 625 500 l 1,20,21
 625 500 625 500 625 125 c 1,22,-1
 500 125 l 1,23,-1
 500 0 l 1,24,-1
 0 0 l 1,0,1
EndSplineSet
EndChar

StartChar: six
Encoding: 54 54 25
Width: 750
GlyphClass: 2
Flags: W
LayerCount: 2
Fore
SplineSet
125 0 m 1,0,-1
 125 125 l 1,1,-1
 0 125 l 1,2,3
 0 125 0 125 0 875 c 1,4,-1
 125 875 l 1,5,-1
 125 1000 l 1,6,7
 125 1000 125 1000 625 1000 c 1,8,9
 625 1000 625 1000 625 750 c 1,10,11
 625 750 625 750 250 750 c 1,12,-1
 250 625 l 1,13,14
 250 625 250 625 500 625 c 1,15,-1
 500 500 l 1,16,-1
 625 500 l 1,17,18
 625 500 625 500 625 125 c 1,19,-1
 500 125 l 1,20,-1
 500 0 l 1,21,-1
 125 0 l 1,0,-1
375 250 m 1,22,-1
 375 375 l 1,23,-1
 250 375 l 1,24,-1
 250 250 l 1,25,-1
 375 250 l 1,22,-1
EndSplineSet
EndChar

StartChar: seven
Encoding: 55 55 26
Width: 750
GlyphClass: 2
Flags: W
LayerCount: 2
Fore
SplineSet
375 0 m 1,0,1
 375 0 375 0 375 250 c 1,2,3
 375 250 375 250 125 250 c 1,4,5
 125 250 125 250 125 500 c 1,6,7
 125 500 125 500 375 500 c 1,8,9
 375 500 375 500 375 750 c 1,10,11
 375 750 375 750 0 750 c 1,12,13
 0 750 0 750 0 1000 c 1,14,15
 0 1000 0 1000 625 1000 c 1,16,17
 625 1000 625 1000 625 0 c 1,18,-1
 375 0 l 1,0,1
EndSplineSet
EndChar

StartChar: eight
Encoding: 56 56 27
Width: 750
GlyphClass: 2
Flags: W
LayerCount: 2
Fore
SplineSet
125 0 m 1,0,-1
 125 125 l 1,1,-1
 0 125 l 1,2,3
 0 125 0 125 0 500 c 1,4,-1
 125 500 l 1,5,-1
 125 625 l 1,6,-1
 0 625 l 1,7,8
 0 625 0 625 0 875 c 1,9,-1
 125 875 l 1,10,-1
 125 1000 l 1,11,12
 125 1000 125 1000 500 1000 c 1,13,-1
 500 875 l 1,14,-1
 625 875 l 1,15,16
 625 875 625 875 625 625 c 1,17,-1
 500 625 l 1,18,-1
 500 500 l 1,19,-1
 625 500 l 1,20,21
 625 500 625 500 625 125 c 1,22,-1
 500 125 l 1,23,-1
 500 0 l 1,24,-1
 125 0 l 1,0,-1
375 250 m 1,25,-1
 375 375 l 1,26,-1
 250 375 l 1,27,-1
 250 250 l 1,28,-1
 375 250 l 1,25,-1
375 625 m 1,29,-1
 375 750 l 1,30,-1
 250 750 l 1,31,-1
 250 625 l 1,32,-1
 375 625 l 1,29,-1
EndSplineSet
EndChar

StartChar: nine
Encoding: 57 57 28
Width: 750
GlyphClass: 2
Flags: W
LayerCount: 2
Fore
SplineSet
0 0 m 1,0,1
 0 0 0 0 0 250 c 1,2,3
 0 250 0 250 375 250 c 1,4,-1
 375 375 l 1,5,6
 375 375 375 375 125 375 c 1,7,-1
 125 500 l 1,8,-1
 0 500 l 1,9,10
 0 500 0 500 0 875 c 1,11,-1
 125 875 l 1,12,-1
 125 1000 l 1,13,14
 125 1000 125 1000 500 1000 c 1,15,-1
 500 875 l 1,16,-1
 625 875 l 1,17,18
 625 875 625 875 625 125 c 1,19,-1
 500 125 l 1,20,-1
 500 0 l 1,21,-1
 0 0 l 1,0,1
375 625 m 1,22,-1
 375 750 l 1,23,-1
 250 750 l 1,24,-1
 250 625 l 1,25,-1
 375 625 l 1,22,-1
EndSplineSet
EndChar

StartChar: colon
Encoding: 58 58 29
Width: 375
GlyphClass: 2
Flags: W
LayerCount: 2
Fore
SplineSet
0 0 m 1,0,1
 0 0 0 0 0 250 c 1,2,3
 0 250 0 250 250 250 c 1,4,5
 250 250 250 250 250 0 c 1,6,-1
 0 0 l 1,0,1
0 500 m 1,7,8
 0 500 0 500 0 750 c 1,9,10
 0 750 0 750 250 750 c 1,11,12
 250 750 250 750 250 500 c 1,13,14
 250 500 250 500 0 500 c 1,7,8
EndSplineSet
EndChar

StartChar: semicolon
Encoding: 59 59 30
Width: 375
GlyphClass: 2
Flags: W
LayerCount: 2
Fore
SplineSet
125 0 m 1,0,-1
 125 125 l 1,1,-1
 0 125 l 1,2,3
 0 125 0 125 0 375 c 1,4,5
 0 375 0 375 250 375 c 1,6,-1
 250 0 l 1,7,-1
 125 0 l 1,0,-1
0 500 m 1,8,9
 0 500 0 500 0 750 c 1,10,11
 0 750 0 750 250 750 c 1,12,13
 250 750 250 750 250 500 c 1,14,15
 250 500 250 500 0 500 c 1,8,9
EndSplineSet
EndChar

StartChar: less
Encoding: 60 60 31
Width: 750
GlyphClass: 2
Flags: W
LayerCount: 2
Fore
SplineSet
375 0 m 1,0,-1
 375 125 l 1,1,-1
 250 125 l 1,2,-1
 250 250 l 1,3,-1
 125 250 l 1,4,-1
 125 375 l 1,5,-1
 0 375 l 1,6,-1
 0 500 l 1,7,-1
 125 500 l 1,8,-1
 125 625 l 1,9,-1
 250 625 l 1,10,-1
 250 750 l 1,11,-1
 375 750 l 1,12,-1
 375 875 l 1,13,14
 375 875 375 875 625 875 c 1,15,16
 625 875 625 875 625 625 c 1,17,-1
 500 625 l 1,18,-1
 500 500 l 1,19,-1
 375 500 l 1,20,-1
 375 375 l 1,21,-1
 500 375 l 1,22,-1
 500 250 l 1,23,-1
 625 250 l 1,24,25
 625 250 625 250 625 0 c 1,26,-1
 375 0 l 1,0,-1
EndSplineSet
EndChar

StartChar: equal
Encoding: 61 61 32
Width: 750
GlyphClass: 2
Flags: W
LayerCount: 2
Fore
SplineSet
0 125 m 1,0,1
 0 125 0 125 0 375 c 1,2,3
 0 375 0 375 625 375 c 1,4,5
 625 375 625 375 625 125 c 1,6,-1
 0 125 l 1,0,1
0 500 m 1,7,8
 0 500 0 500 0 750 c 1,9,10
 0 750 0 750 625 750 c 1,11,12
 625 750 625 750 625 500 c 1,13,14
 625 500 625 500 0 500 c 1,7,8
EndSplineSet
EndChar

StartChar: greater
Encoding: 62 62 33
Width: 750
GlyphClass: 2
Flags: W
LayerCount: 2
Fore
SplineSet
0 0 m 1,0,1
 0 0 0 0 0 250 c 1,2,-1
 125 250 l 1,3,-1
 125 375 l 1,4,-1
 250 375 l 1,5,-1
 250 500 l 1,6,-1
 125 500 l 1,7,-1
 125 625 l 1,8,-1
 0 625 l 1,9,10
 0 625 0 625 0 875 c 1,11,12
 0 875 0 875 250 875 c 1,13,-1
 250 750 l 1,14,-1
 375 750 l 1,15,-1
 375 625 l 1,16,-1
 500 625 l 1,17,-1
 500 500 l 1,18,-1
 625 500 l 1,19,-1
 625 375 l 1,20,-1
 500 375 l 1,21,-1
 500 250 l 1,22,-1
 375 250 l 1,23,-1
 375 125 l 1,24,-1
 250 125 l 1,25,-1
 250 0 l 1,26,-1
 0 0 l 1,0,1
EndSplineSet
EndChar

StartChar: question
Encoding: 63 63 34
Width: 750
GlyphClass: 2
Flags: W
LayerCount: 2
Fore
SplineSet
375 125 m 1,0,-1
 375 0 l 1,1,2
 375 0 375 0 125 0 c 1,3,-1
 125 125 l 1,4,-1
 375 125 l 1,0,-1
125 250 m 1,5,6
 125 250 125 250 125 500 c 1,7,-1
 250 500 l 1,8,-1
 250 625 l 1,9,-1
 375 625 l 1,10,-1
 375 750 l 1,11,12
 375 750 375 750 0 750 c 1,13,14
 0 750 0 750 0 1000 c 1,15,16
 0 1000 0 1000 500 1000 c 1,17,-1
 500 875 l 1,18,-1
 625 875 l 1,19,20
 625 875 625 875 625 500 c 1,21,-1
 500 500 l 1,22,-1
 500 375 l 1,23,-1
 375 375 l 1,24,-1
 375 250 l 1,25,26
 375 250 375 250 125 250 c 1,5,6
EndSplineSet
EndChar

StartChar: at
Encoding: 64 64 35
Width: 1000
GlyphClass: 2
Flags: W
LayerCount: 2
Fore
SplineSet
125 0 m 1,0,-1
 125 125 l 1,1,-1
 0 125 l 1,2,3
 0 125 0 125 0 750 c 1,4,-1
 125 750 l 1,5,-1
 125 875 l 1,6,7
 125 875 125 875 750 875 c 1,8,-1
 750 750 l 1,9,-1
 875 750 l 1,10,11
 875 750 875 750 875 125 c 1,12,-1
 750 125 l 1,13,-1
 750 0 l 1,14,-1
 125 0 l 1,0,-1
375 250 m 1,15,16
 375 250 375 250 375 500 c 1,17,18
 375 500 375 500 625 500 c 1,19,-1
 625 625 l 1,20,21
 625 625 625 625 250 625 c 1,22,23
 250 625 250 625 250 250 c 1,24,-1
 375 250 l 1,15,16
EndSplineSet
EndChar

StartChar: A
Encoding: 65 65 36
Width: 750
GlyphClass: 2
Flags: W
LayerCount: 2
Fore
SplineSet
375 0 m 1,0,1
 375 0 375 0 375 375 c 1,2,-1
 250 375 l 1,3,4
 250 375 250 375 250 0 c 1,5,6
 250 0 250 0 0 0 c 1,7,8
 0 0 0 0 0 875 c 1,9,-1
 125 875 l 1,10,-1
 125 1000 l 1,11,12
 125 1000 125 1000 500 1000 c 1,13,-1
 500 875 l 1,14,-1
 625 875 l 1,15,16
 625 875 625 875 625 0 c 1,17,-1
 375 0 l 1,0,1
375 500 m 1,18,19
 375 500 375 500 375 750 c 1,20,-1
 250 750 l 1,21,22
 250 750 250 750 250 500 c 1,23,-1
 375 500 l 1,18,19
EndSplineSet
EndChar

StartChar: B
Encoding: 66 66 37
Width: 750
GlyphClass: 2
Flags: W
LayerCount: 2
Fore
SplineSet
0 0 m 1,0,1
 0 0 0 0 0 1000 c 1,2,3
 0 1000 0 1000 500 1000 c 1,4,-1
 500 875 l 1,5,-1
 625 875 l 1,6,7
 625 875 625 875 625 625 c 1,8,-1
 500 625 l 1,9,-1
 500 500 l 1,10,-1
 625 500 l 1,11,12
 625 500 625 500 625 125 c 1,13,-1
 500 125 l 1,14,-1
 500 0 l 1,15,-1
 0 0 l 1,0,1
375 250 m 1,16,17
 375 250 375 250 375 500 c 1,18,-1
 250 500 l 1,19,20
 250 500 250 500 250 250 c 1,21,-1
 375 250 l 1,16,17
375 625 m 1,22,-1
 375 750 l 1,23,-1
 250 750 l 1,24,-1
 250 625 l 1,25,-1
 375 625 l 1,22,-1
EndSplineSet
EndChar

StartChar: C
Encoding: 67 67 38
Width: 750
GlyphClass: 2
Flags: W
LayerCount: 2
Fore
SplineSet
125 0 m 1,0,-1
 125 125 l 1,1,-1
 0 125 l 1,2,3
 0 125 0 125 0 875 c 1,4,-1
 125 875 l 1,5,-1
 125 1000 l 1,6,7
 125 1000 125 1000 500 1000 c 1,8,-1
 500 875 l 1,9,-1
 625 875 l 1,10,11
 625 875 625 875 625 625 c 1,12,13
 625 625 625 625 375 625 c 1,14,-1
 375 750 l 1,15,-1
 250 750 l 1,16,17
 250 750 250 750 250 250 c 1,18,-1
 375 250 l 1,19,-1
 375 375 l 1,20,21
 375 375 375 375 625 375 c 1,22,23
 625 375 625 375 625 125 c 1,24,-1
 500 125 l 1,25,-1
 500 0 l 1,26,-1
 125 0 l 1,0,-1
EndSplineSet
EndChar

StartChar: D
Encoding: 68 68 39
Width: 750
GlyphClass: 2
Flags: W
LayerCount: 2
Fore
SplineSet
0 0 m 1,0,1
 0 0 0 0 0 1000 c 1,2,3
 0 1000 0 1000 500 1000 c 1,4,-1
 500 875 l 1,5,-1
 625 875 l 1,6,7
 625 875 625 875 625 125 c 1,8,-1
 500 125 l 1,9,-1
 500 0 l 1,10,-1
 0 0 l 1,0,1
375 250 m 1,11,12
 375 250 375 250 375 750 c 1,13,-1
 250 750 l 1,14,15
 250 750 250 750 250 250 c 1,16,-1
 375 250 l 1,11,12
EndSplineSet
EndChar

StartChar: E
Encoding: 69 69 40
Width: 750
GlyphClass: 2
Flags: W
LayerCount: 2
Fore
SplineSet
0 0 m 1,0,1
 0 0 0 0 0 1000 c 1,2,3
 0 1000 0 1000 625 1000 c 1,4,5
 625 1000 625 1000 625 750 c 1,6,7
 625 750 625 750 250 750 c 1,8,-1
 250 625 l 1,9,10
 250 625 250 625 500 625 c 1,11,12
 500 625 500 625 500 375 c 1,13,14
 500 375 500 375 250 375 c 1,15,-1
 250 250 l 1,16,17
 250 250 250 250 625 250 c 1,18,19
 625 250 625 250 625 0 c 1,20,-1
 0 0 l 1,0,1
EndSplineSet
EndChar

StartChar: F
Encoding: 70 70 41
Width: 750
GlyphClass: 2
Flags: W
LayerCount: 2
Fore
SplineSet
0 0 m 1,0,1
 0 0 0 0 0 1000 c 1,2,3
 0 1000 0 1000 625 1000 c 1,4,5
 625 1000 625 1000 625 750 c 1,6,7
 625 750 625 750 250 750 c 1,8,-1
 250 625 l 1,9,10
 250 625 250 625 500 625 c 1,11,12
 500 625 500 625 500 375 c 1,13,14
 500 375 500 375 250 375 c 1,15,16
 250 375 250 375 250 0 c 1,17,-1
 0 0 l 1,0,1
EndSplineSet
EndChar

StartChar: G
Encoding: 71 71 42
Width: 875
GlyphClass: 2
Flags: W
LayerCount: 2
Fore
SplineSet
125 0 m 1,0,-1
 125 125 l 1,1,-1
 0 125 l 1,2,3
 0 125 0 125 0 875 c 1,4,-1
 125 875 l 1,5,-1
 125 1000 l 1,6,7
 125 1000 125 1000 750 1000 c 1,8,9
 750 1000 750 1000 750 750 c 1,10,11
 750 750 750 750 250 750 c 1,12,13
 250 750 250 750 250 250 c 1,14,15
 250 250 250 250 500 250 c 1,16,-1
 500 375 l 1,17,-1
 375 375 l 1,18,19
 375 375 375 375 375 625 c 1,20,21
 375 625 375 625 750 625 c 1,22,23
 750 625 750 625 750 125 c 1,24,-1
 625 125 l 1,25,-1
 625 0 l 1,26,-1
 125 0 l 1,0,-1
EndSplineSet
EndChar

StartChar: H
Encoding: 72 72 43
Width: 750
GlyphClass: 2
Flags: W
LayerCount: 2
Fore
SplineSet
375 0 m 5,0,1
 375 0 375 0 375 375 c 5,2,-1
 250 375 l 5,3,4
 250 375 250 375 250 0 c 5,5,6
 250 0 250 0 0 0 c 5,7,8
 0 0 0 0 0 1000 c 5,9,10
 0 1000 0 1000 250 1000 c 5,11,12
 250 1000 250 1000 250 625 c 5,13,-1
 375 625 l 5,14,15
 375 625 375 625 375 1000 c 5,16,17
 375 1000 375 1000 625 1000 c 5,18,19
 625 1000 625 1000 625 0 c 5,20,-1
 375 0 l 5,0,1
EndSplineSet
EndChar

StartChar: I
Encoding: 73 73 44
Width: 625
GlyphClass: 2
Flags: W
LayerCount: 2
Fore
SplineSet
0 0 m 1,0,1
 0 0 0 0 0 250 c 1,2,-1
 125 250 l 1,3,4
 125 250 125 250 125 750 c 1,5,-1
 0 750 l 1,6,7
 0 750 0 750 0 1000 c 1,8,9
 0 1000 0 1000 500 1000 c 1,10,11
 500 1000 500 1000 500 750 c 1,12,-1
 375 750 l 1,13,14
 375 750 375 750 375 250 c 1,15,-1
 500 250 l 1,16,17
 500 250 500 250 500 0 c 1,18,-1
 0 0 l 1,0,1
EndSplineSet
EndChar

StartChar: J
Encoding: 74 74 45
Width: 750
GlyphClass: 2
Flags: W
LayerCount: 2
Fore
SplineSet
125 0 m 1,0,-1
 125 125 l 1,1,-1
 0 125 l 1,2,3
 0 125 0 125 0 375 c 1,4,5
 0 375 0 375 250 375 c 1,6,-1
 250 250 l 1,7,-1
 375 250 l 1,8,9
 375 250 375 250 375 750 c 1,10,11
 375 750 375 750 125 750 c 1,12,13
 125 750 125 750 125 1000 c 1,14,15
 125 1000 125 1000 625 1000 c 1,16,17
 625 1000 625 1000 625 125 c 1,18,-1
 500 125 l 1,19,-1
 500 0 l 1,20,-1
 125 0 l 1,0,-1
EndSplineSet
EndChar

StartChar: K
Encoding: 75 75 46
Width: 875
GlyphClass: 2
Flags: W
LayerCount: 2
Fore
SplineSet
500 0 m 1,0,-1
 500 125 l 1,1,-1
 375 125 l 1,2,-1
 375 250 l 1,3,-1
 250 250 l 1,4,5
 250 250 250 250 250 0 c 1,6,7
 250 0 250 0 0 0 c 1,8,9
 0 0 0 0 0 1000 c 1,10,11
 0 1000 0 1000 250 1000 c 1,12,13
 250 1000 250 1000 250 625 c 1,14,-1
 375 625 l 1,15,-1
 375 750 l 1,16,-1
 500 750 l 1,17,-1
 500 875 l 1,18,19
 500 875 500 875 750 875 c 1,20,21
 750 875 750 875 750 625 c 1,22,-1
 625 625 l 1,23,-1
 625 500 l 1,24,-1
 500 500 l 1,25,-1
 500 375 l 1,26,-1
 625 375 l 1,27,-1
 625 250 l 1,28,-1
 750 250 l 1,29,30
 750 250 750 250 750 0 c 1,31,-1
 500 0 l 1,0,-1
EndSplineSet
EndChar

StartChar: L
Encoding: 76 76 47
Width: 750
GlyphClass: 2
Flags: W
LayerCount: 2
Fore
SplineSet
0 0 m 1,0,1
 0 0 0 0 0 1000 c 1,2,3
 0 1000 0 1000 250 1000 c 1,4,5
 250 1000 250 1000 250 250 c 1,6,7
 250 250 250 250 625 250 c 1,8,9
 625 250 625 250 625 0 c 1,10,-1
 0 0 l 1,0,1
EndSplineSet
EndChar

StartChar: M
Encoding: 77 77 48
Width: 875
GlyphClass: 2
Flags: W
LayerCount: 2
Fore
SplineSet
500 0 m 1,0,1
 500 0 500 0 500 375 c 1,2,3
 500 375 500 375 250 375 c 1,4,5
 250 375 250 375 250 0 c 1,6,7
 250 0 250 0 0 0 c 1,8,9
 0 0 0 0 0 1000 c 1,10,-1
 125 1000 l 1,11,-1
 125 875 l 1,12,-1
 250 875 l 1,13,-1
 250 750 l 1,14,15
 250 750 250 750 500 750 c 1,16,-1
 500 875 l 1,17,-1
 625 875 l 1,18,-1
 625 1000 l 1,19,-1
 750 1000 l 1,20,21
 750 1000 750 1000 750 0 c 1,22,-1
 500 0 l 1,0,1
EndSplineSet
EndChar

StartChar: N
Encoding: 78 78 49
Width: 875
GlyphClass: 2
Flags: W
LayerCount: 2
Fore
SplineSet
500 0 m 1,0,1
 500 0 500 0 500 375 c 1,2,-1
 375 375 l 1,3,-1
 375 500 l 1,4,-1
 250 500 l 1,5,6
 250 500 250 500 250 0 c 1,7,8
 250 0 250 0 0 0 c 1,9,10
 0 0 0 0 0 1000 c 1,11,12
 0 1000 0 1000 250 1000 c 1,13,14
 250 1000 250 1000 250 750 c 1,15,-1
 375 750 l 1,16,-1
 375 625 l 1,17,-1
 500 625 l 1,18,19
 500 625 500 625 500 1000 c 1,20,21
 500 1000 500 1000 750 1000 c 1,22,23
 750 1000 750 1000 750 0 c 1,24,-1
 500 0 l 1,0,1
EndSplineSet
EndChar

StartChar: O
Encoding: 79 79 50
Width: 875
GlyphClass: 2
Flags: W
LayerCount: 2
Fore
SplineSet
125 0 m 1,0,-1
 125 125 l 1,1,-1
 0 125 l 1,2,3
 0 125 0 125 0 875 c 1,4,-1
 125 875 l 1,5,-1
 125 1000 l 1,6,7
 125 1000 125 1000 625 1000 c 1,8,-1
 625 875 l 1,9,-1
 750 875 l 1,10,11
 750 875 750 875 750 125 c 1,12,-1
 625 125 l 1,13,-1
 625 0 l 1,14,-1
 125 0 l 1,0,-1
500 250 m 1,15,16
 500 250 500 250 500 750 c 1,17,18
 500 750 500 750 250 750 c 1,19,20
 250 750 250 750 250 250 c 1,21,22
 250 250 250 250 500 250 c 1,15,16
EndSplineSet
EndChar

StartChar: P
Encoding: 80 80 51
Width: 750
GlyphClass: 2
Flags: W
LayerCount: 2
Fore
SplineSet
0 0 m 1,0,1
 0 0 0 0 0 1000 c 1,2,3
 0 1000 0 1000 500 1000 c 1,4,-1
 500 875 l 1,5,-1
 625 875 l 1,6,7
 625 875 625 875 625 375 c 1,8,-1
 500 375 l 1,9,-1
 500 250 l 1,10,11
 500 250 500 250 250 250 c 1,12,13
 250 250 250 250 250 0 c 1,14,-1
 0 0 l 1,0,1
375 500 m 1,15,16
 375 500 375 500 375 750 c 1,17,-1
 250 750 l 1,18,19
 250 750 250 750 250 500 c 1,20,-1
 375 500 l 1,15,16
EndSplineSet
EndChar

StartChar: Q
Encoding: 81 81 52
Width: 875
GlyphClass: 2
Flags: W
LayerCount: 2
Fore
SplineSet
125 0 m 1,0,-1
 125 125 l 1,1,-1
 0 125 l 1,2,3
 0 125 0 125 0 875 c 1,4,-1
 125 875 l 1,5,-1
 125 1000 l 1,6,7
 125 1000 125 1000 500 1000 c 1,8,-1
 500 875 l 1,9,-1
 625 875 l 1,10,11
 625 875 625 875 625 250 c 1,12,-1
 750 250 l 1,13,14
 750 250 750 250 750 0 c 1,15,-1
 125 0 l 1,0,-1
375 250 m 1,16,17
 375 250 375 250 375 750 c 1,18,-1
 250 750 l 1,19,20
 250 750 250 750 250 250 c 1,21,-1
 375 250 l 1,16,17
EndSplineSet
EndChar

StartChar: R
Encoding: 82 82 53
Width: 750
GlyphClass: 2
Flags: W
LayerCount: 2
Fore
SplineSet
375 0 m 1,0,1
 375 0 375 0 375 375 c 1,2,-1
 250 375 l 1,3,4
 250 375 250 375 250 0 c 1,5,6
 250 0 250 0 0 0 c 1,7,8
 0 0 0 0 0 1000 c 1,9,10
 0 1000 0 1000 500 1000 c 1,11,-1
 500 875 l 1,12,-1
 625 875 l 1,13,14
 625 875 625 875 625 500 c 1,15,-1
 500 500 l 1,16,-1
 500 375 l 1,17,-1
 625 375 l 1,18,19
 625 375 625 375 625 0 c 1,20,-1
 375 0 l 1,0,1
375 625 m 1,21,-1
 375 750 l 1,22,-1
 250 750 l 1,23,-1
 250 625 l 1,24,-1
 375 625 l 1,21,-1
EndSplineSet
EndChar

StartChar: S
Encoding: 83 83 54
Width: 750
GlyphClass: 2
Flags: W
LayerCount: 2
Fore
SplineSet
0 0 m 1,0,1
 0 0 0 0 0 250 c 1,2,3
 0 250 0 250 375 250 c 1,4,-1
 375 375 l 1,5,6
 375 375 375 375 125 375 c 1,7,-1
 125 500 l 1,8,-1
 0 500 l 1,9,10
 0 500 0 500 0 875 c 1,11,-1
 125 875 l 1,12,-1
 125 1000 l 1,13,14
 125 1000 125 1000 625 1000 c 1,15,16
 625 1000 625 1000 625 750 c 1,17,18
 625 750 625 750 250 750 c 1,19,-1
 250 625 l 1,20,21
 250 625 250 625 500 625 c 1,22,-1
 500 500 l 1,23,-1
 625 500 l 1,24,25
 625 500 625 500 625 125 c 1,26,-1
 500 125 l 1,27,-1
 500 0 l 1,28,-1
 0 0 l 1,0,1
EndSplineSet
EndChar

StartChar: T
Encoding: 84 84 55
Width: 875
GlyphClass: 2
Flags: W
LayerCount: 2
Fore
SplineSet
250 0 m 1,0,1
 250 0 250 0 250 750 c 1,2,3
 250 750 250 750 0 750 c 1,4,5
 0 750 0 750 0 1000 c 1,6,7
 0 1000 0 1000 750 1000 c 1,8,9
 750 1000 750 1000 750 750 c 1,10,11
 750 750 750 750 500 750 c 1,12,13
 500 750 500 750 500 0 c 1,14,-1
 250 0 l 1,0,1
EndSplineSet
EndChar

StartChar: U
Encoding: 85 85 56
Width: 750
GlyphClass: 2
Flags: W
LayerCount: 2
Fore
SplineSet
125 0 m 1,0,-1
 125 125 l 1,1,-1
 0 125 l 1,2,3
 0 125 0 125 0 1000 c 1,4,5
 0 1000 0 1000 250 1000 c 1,6,7
 250 1000 250 1000 250 250 c 1,8,-1
 375 250 l 1,9,10
 375 250 375 250 375 1000 c 1,11,12
 375 1000 375 1000 625 1000 c 1,13,14
 625 1000 625 1000 625 125 c 1,15,-1
 500 125 l 1,16,-1
 500 0 l 1,17,-1
 125 0 l 1,0,-1
EndSplineSet
EndChar

StartChar: V
Encoding: 86 86 57
Width: 750
GlyphClass: 2
Flags: W
LayerCount: 2
Fore
SplineSet
250 0 m 1,0,-1
 250 125 l 1,1,-1
 125 125 l 1,2,-1
 125 250 l 1,3,-1
 0 250 l 1,4,5
 0 250 0 250 0 1000 c 1,6,7
 0 1000 0 1000 250 1000 c 1,8,9
 250 1000 250 1000 250 375 c 1,10,-1
 375 375 l 1,11,12
 375 375 375 375 375 1000 c 1,13,14
 375 1000 375 1000 625 1000 c 1,15,-1
 625 250 l 1,16,-1
 500 250 l 1,17,-1
 500 125 l 1,18,-1
 375 125 l 1,19,-1
 375 0 l 1,20,-1
 250 0 l 1,0,-1
EndSplineSet
EndChar

StartChar: W
Encoding: 87 87 58
Width: 875
GlyphClass: 2
Flags: W
LayerCount: 2
Fore
SplineSet
625 0 m 1,0,-1
 625 125 l 1,1,-1
 500 125 l 1,2,-1
 500 250 l 1,3,4
 500 250 500 250 250 250 c 1,5,-1
 250 125 l 1,6,-1
 125 125 l 1,7,-1
 125 0 l 1,8,-1
 0 0 l 1,9,10
 0 0 0 0 0 1000 c 1,11,12
 0 1000 0 1000 250 1000 c 1,13,14
 250 1000 250 1000 250 625 c 1,15,16
 250 625 250 625 500 625 c 1,17,18
 500 625 500 625 500 1000 c 1,19,20
 500 1000 500 1000 750 1000 c 1,21,-1
 750 0 l 1,22,-1
 625 0 l 1,0,-1
EndSplineSet
EndChar

StartChar: X
Encoding: 88 88 59
Width: 1000
GlyphClass: 2
Flags: W
LayerCount: 2
Fore
SplineSet
625 0 m 1,0,-1
 625 125 l 1,1,-1
 500 125 l 1,2,-1
 500 250 l 1,3,-1
 375 250 l 1,4,-1
 375 125 l 1,5,-1
 250 125 l 1,6,-1
 250 0 l 1,7,8
 250 0 250 0 0 0 c 1,9,10
 0 0 0 0 0 250 c 1,11,-1
 125 250 l 1,12,-1
 125 375 l 1,13,-1
 250 375 l 1,14,15
 250 375 250 375 250 625 c 1,16,-1
 125 625 l 1,17,-1
 125 750 l 1,18,-1
 0 750 l 1,19,20
 0 750 0 750 0 1000 c 1,21,22
 0 1000 0 1000 250 1000 c 1,23,-1
 250 875 l 1,24,-1
 375 875 l 1,25,-1
 375 750 l 1,26,-1
 500 750 l 1,27,-1
 500 875 l 1,28,-1
 625 875 l 1,29,-1
 625 1000 l 1,30,31
 625 1000 625 1000 875 1000 c 1,32,33
 875 1000 875 1000 875 750 c 1,34,-1
 750 750 l 1,35,-1
 750 625 l 1,36,-1
 625 625 l 1,37,38
 625 625 625 625 625 375 c 1,39,-1
 750 375 l 1,40,-1
 750 250 l 1,41,-1
 875 250 l 1,42,43
 875 250 875 250 875 0 c 1,44,-1
 625 0 l 1,0,-1
EndSplineSet
EndChar

StartChar: Y
Encoding: 89 89 60
Width: 875
GlyphClass: 2
Flags: W
LayerCount: 2
Fore
SplineSet
250 0 m 1,0,1
 250 0 250 0 250 500 c 1,2,-1
 125 500 l 1,3,-1
 125 625 l 1,4,-1
 0 625 l 1,5,6
 0 625 0 625 0 1000 c 1,7,8
 0 1000 0 1000 250 1000 c 1,9,10
 250 1000 250 1000 250 750 c 1,11,12
 250 750 250 750 500 750 c 1,13,14
 500 750 500 750 500 1000 c 1,15,16
 500 1000 500 1000 750 1000 c 1,17,18
 750 1000 750 1000 750 625 c 1,19,-1
 625 625 l 1,20,-1
 625 500 l 1,21,-1
 500 500 l 1,22,23
 500 500 500 500 500 0 c 1,24,-1
 250 0 l 1,0,1
EndSplineSet
EndChar

StartChar: Z
Encoding: 90 90 61
Width: 875
GlyphClass: 2
Flags: W
LayerCount: 2
Fore
SplineSet
0 0 m 1,0,1
 0 0 0 0 0 375 c 1,2,-1
 125 375 l 1,3,-1
 125 500 l 1,4,-1
 250 500 l 1,5,-1
 250 625 l 1,6,-1
 375 625 l 1,7,-1
 375 750 l 1,8,9
 375 750 375 750 0 750 c 1,10,11
 0 750 0 750 0 1000 c 1,12,13
 0 1000 0 1000 750 1000 c 1,14,15
 750 1000 750 1000 750 750 c 1,16,-1
 625 750 l 1,17,18
 625 750 625 750 625 500 c 1,19,-1
 500 500 l 1,20,-1
 500 375 l 1,21,-1
 375 375 l 1,22,-1
 375 250 l 1,23,24
 375 250 375 250 750 250 c 1,25,26
 750 250 750 250 750 0 c 1,27,-1
 0 0 l 1,0,1
EndSplineSet
EndChar

StartChar: bracketleft
Encoding: 91 91 62
Width: 500
GlyphClass: 2
Flags: W
LayerCount: 2
Fore
SplineSet
0 0 m 1,0,1
 0 0 0 0 0 1000 c 1,2,3
 0 1000 0 1000 375 1000 c 1,4,5
 375 1000 375 1000 375 750 c 1,6,-1
 250 750 l 1,7,8
 250 750 250 750 250 250 c 1,9,-1
 375 250 l 1,10,11
 375 250 375 250 375 0 c 1,12,-1
 0 0 l 1,0,1
EndSplineSet
EndChar

StartChar: backslash
Encoding: 92 92 63
Width: 750
GlyphClass: 2
Flags: W
LayerCount: 2
Fore
SplineSet
375 0 m 1,0,1
 375 0 375 0 375 250 c 1,2,-1
 250 250 l 1,3,4
 250 250 250 250 250 500 c 1,5,-1
 125 500 l 1,6,7
 125 500 125 500 125 750 c 1,8,-1
 0 750 l 1,9,10
 0 750 0 750 0 1000 c 1,11,12
 0 1000 0 1000 250 1000 c 1,13,14
 250 1000 250 1000 250 750 c 1,15,-1
 375 750 l 1,16,17
 375 750 375 750 375 500 c 1,18,-1
 500 500 l 1,19,20
 500 500 500 500 500 250 c 1,21,-1
 625 250 l 1,22,23
 625 250 625 250 625 0 c 1,24,-1
 375 0 l 1,0,1
EndSplineSet
EndChar

StartChar: bracketright
Encoding: 93 93 64
Width: 500
GlyphClass: 2
Flags: W
LayerCount: 2
Fore
SplineSet
0 0 m 1,0,1
 0 0 0 0 0 250 c 1,2,-1
 125 250 l 1,3,4
 125 250 125 250 125 750 c 1,5,-1
 0 750 l 1,6,7
 0 750 0 750 0 1000 c 1,8,9
 0 1000 0 1000 375 1000 c 1,10,11
 375 1000 375 1000 375 0 c 1,12,-1
 0 0 l 1,0,1
EndSplineSet
EndChar

StartChar: asciicircum
Encoding: 94 94 65
Width: 875
GlyphClass: 2
Flags: W
LayerCount: 2
Fore
SplineSet
500 500 m 1,0,-1
 500 625 l 1,1,2
 500 625 500 625 250 625 c 1,3,-1
 250 500 l 1,4,5
 250 500 250 500 0 500 c 1,6,7
 0 500 0 500 0 750 c 1,8,-1
 125 750 l 1,9,-1
 125 875 l 1,10,-1
 250 875 l 1,11,-1
 250 1000 l 1,12,13
 250 1000 250 1000 500 1000 c 1,14,-1
 500 875 l 1,15,-1
 625 875 l 1,16,-1
 625 750 l 1,17,-1
 750 750 l 1,18,19
 750 750 750 750 750 500 c 1,20,-1
 500 500 l 1,0,-1
EndSplineSet
EndChar

StartChar: underscore
Encoding: 95 95 66
Width: 875
GlyphClass: 2
Flags: W
LayerCount: 2
Fore
SplineSet
0 0 m 1,0,1
 0 0 0 0 0 250 c 1,2,3
 0 250 0 250 750 250 c 1,4,5
 750 250 750 250 750 0 c 1,6,-1
 0 0 l 1,0,1
EndSplineSet
EndChar

StartChar: grave
Encoding: 96 96 67
Width: 625
GlyphClass: 2
Flags: W
LayerCount: 2
Fore
SplineSet
250 500 m 1,0,-1
 250 625 l 1,1,-1
 125 625 l 1,2,-1
 125 750 l 1,3,-1
 0 750 l 1,4,5
 0 750 0 750 0 1000 c 1,6,7
 0 1000 0 1000 250 1000 c 1,8,-1
 250 875 l 1,9,-1
 375 875 l 1,10,-1
 375 750 l 1,11,-1
 500 750 l 1,12,13
 500 750 500 750 500 500 c 1,14,-1
 250 500 l 1,0,-1
EndSplineSet
EndChar

StartChar: a
Encoding: 97 97 68
Width: 750
GlyphClass: 2
Flags: W
LayerCount: 2
Fore
SplineSet
125 0 m 1,0,-1
 125 125 l 1,1,-1
 0 125 l 1,2,3
 0 125 0 125 0 625 c 1,4,-1
 125 625 l 1,5,-1
 125 750 l 1,6,7
 125 750 125 750 625 750 c 1,8,9
 625 750 625 750 625 0 c 1,10,-1
 125 0 l 1,0,-1
375 250 m 1,11,12
 375 250 375 250 375 500 c 1,13,-1
 250 500 l 1,14,15
 250 500 250 500 250 250 c 1,16,-1
 375 250 l 1,11,12
EndSplineSet
EndChar

StartChar: b
Encoding: 98 98 69
Width: 750
GlyphClass: 2
Flags: W
LayerCount: 2
Fore
SplineSet
0 0 m 1,0,1
 0 0 0 0 0 875 c 1,2,3
 0 875 0 875 250 875 c 1,4,-1
 250 750 l 1,5,6
 250 750 250 750 500 750 c 1,7,-1
 500 625 l 1,8,-1
 625 625 l 1,9,10
 625 625 625 625 625 125 c 1,11,-1
 500 125 l 1,12,-1
 500 0 l 1,13,-1
 0 0 l 1,0,1
375 250 m 1,14,15
 375 250 375 250 375 500 c 1,16,-1
 250 500 l 1,17,18
 250 500 250 500 250 250 c 1,19,-1
 375 250 l 1,14,15
EndSplineSet
EndChar

StartChar: c
Encoding: 99 99 70
Width: 625
GlyphClass: 2
Flags: W
LayerCount: 2
Fore
SplineSet
125 0 m 1,0,-1
 125 125 l 1,1,-1
 0 125 l 1,2,3
 0 125 0 125 0 625 c 1,4,-1
 125 625 l 1,5,-1
 125 750 l 1,6,7
 125 750 125 750 500 750 c 1,8,9
 500 750 500 750 500 500 c 1,10,11
 500 500 500 500 250 500 c 1,12,13
 250 500 250 500 250 250 c 1,14,15
 250 250 250 250 500 250 c 1,16,17
 500 250 500 250 500 0 c 1,18,-1
 125 0 l 1,0,-1
EndSplineSet
EndChar

StartChar: d
Encoding: 100 100 71
Width: 750
GlyphClass: 2
Flags: W
LayerCount: 2
Fore
SplineSet
125 0 m 1,0,-1
 125 125 l 1,1,-1
 0 125 l 1,2,3
 0 125 0 125 0 625 c 1,4,-1
 125 625 l 1,5,-1
 125 750 l 1,6,7
 125 750 125 750 375 750 c 1,8,-1
 375 875 l 1,9,10
 375 875 375 875 625 875 c 1,11,12
 625 875 625 875 625 0 c 1,13,-1
 125 0 l 1,0,-1
375 250 m 1,14,15
 375 250 375 250 375 500 c 1,16,-1
 250 500 l 1,17,18
 250 500 250 500 250 250 c 1,19,-1
 375 250 l 1,14,15
EndSplineSet
EndChar

StartChar: e
Encoding: 101 101 72
Width: 750
GlyphClass: 2
Flags: W
LayerCount: 2
Fore
SplineSet
125 0 m 1,0,-1
 125 125 l 1,1,-1
 0 125 l 1,2,3
 0 125 0 125 0 625 c 1,4,-1
 125 625 l 1,5,-1
 125 750 l 1,6,7
 125 750 125 750 500 750 c 1,8,-1
 500 625 l 1,9,-1
 625 625 l 1,10,11
 625 625 625 625 625 375 c 1,12,13
 625 375 625 375 250 375 c 1,14,-1
 250 250 l 1,15,16
 250 250 250 250 625 250 c 1,17,18
 625 250 625 250 625 0 c 1,19,-1
 125 0 l 1,0,-1
EndSplineSet
EndChar

StartChar: f
Encoding: 102 102 73
Width: 625
GlyphClass: 2
Flags: W
LayerCount: 2
Fore
SplineSet
0 0 m 1,0,1
 0 0 0 0 0 750 c 1,2,-1
 125 750 l 1,3,-1
 125 875 l 1,4,5
 125 875 125 875 500 875 c 1,6,7
 500 875 500 875 500 625 c 1,8,9
 500 625 500 625 250 625 c 1,10,-1
 250 500 l 1,11,12
 250 500 250 500 500 500 c 1,13,14
 500 500 500 500 500 250 c 1,15,16
 500 250 500 250 250 250 c 1,17,18
 250 250 250 250 250 0 c 1,19,-1
 0 0 l 1,0,1
EndSplineSet
EndChar

StartChar: g
Encoding: 103 103 74
Width: 750
GlyphClass: 2
Flags: W
LayerCount: 2
Fore
SplineSet
0 0 m 1,0,1
 0 0 0 0 0 250 c 1,2,3
 0 250 0 250 375 250 c 1,4,-1
 375 375 l 1,5,6
 375 375 375 375 0 375 c 1,7,8
 0 375 0 375 0 750 c 1,9,-1
 125 750 l 1,10,-1
 125 875 l 1,11,12
 125 875 125 875 625 875 c 1,13,14
 625 875 625 875 625 125 c 1,15,-1
 500 125 l 1,16,-1
 500 0 l 1,17,-1
 0 0 l 1,0,1
375 500 m 1,18,-1
 375 625 l 1,19,-1
 250 625 l 1,20,-1
 250 500 l 1,21,-1
 375 500 l 1,18,-1
EndSplineSet
EndChar

StartChar: h
Encoding: 104 104 75
Width: 750
GlyphClass: 2
Flags: W
LayerCount: 2
Fore
SplineSet
375 0 m 1,0,1
 375 0 375 0 375 375 c 1,2,-1
 250 375 l 1,3,4
 250 375 250 375 250 0 c 1,5,6
 250 0 250 0 0 0 c 1,7,8
 0 0 0 0 0 875 c 1,9,10
 0 875 0 875 250 875 c 1,11,12
 250 875 250 875 250 625 c 1,13,14
 250 625 250 625 500 625 c 1,15,-1
 500 500 l 1,16,-1
 625 500 l 1,17,18
 625 500 625 500 625 0 c 1,19,-1
 375 0 l 1,0,1
EndSplineSet
EndChar

StartChar: i
Encoding: 105 105 76
Width: 375
GlyphClass: 2
Flags: W
LayerCount: 2
Fore
SplineSet
0 0 m 1,0,1
 0 0 0 0 0 500 c 1,2,3
 0 500 0 500 250 500 c 1,4,5
 250 500 250 500 250 0 c 1,6,-1
 0 0 l 1,0,1
0 625 m 1,7,8
 0 625 0 625 0 875 c 1,9,10
 0 875 0 875 250 875 c 1,11,12
 250 875 250 875 250 625 c 1,13,14
 250 625 250 625 0 625 c 1,7,8
EndSplineSet
EndChar

StartChar: j
Encoding: 106 106 77
Width: 625
GlyphClass: 2
Flags: W
LayerCount: 2
Fore
SplineSet
0 0 m 1,0,1
 0 0 0 0 0 250 c 1,2,3
 0 250 0 250 250 250 c 1,4,5
 250 250 250 250 250 625 c 1,6,-1
 125 625 l 1,7,8
 125 625 125 625 125 875 c 1,9,10
 125 875 125 875 500 875 c 1,11,12
 500 875 500 875 500 125 c 1,13,-1
 375 125 l 1,14,-1
 375 0 l 1,15,-1
 0 0 l 1,0,1
EndSplineSet
EndChar

StartChar: k
Encoding: 107 107 78
Width: 750
GlyphClass: 2
Flags: W
LayerCount: 2
Fore
SplineSet
375 0 m 1,0,-1
 375 125 l 1,1,-1
 250 125 l 1,2,-1
 250 0 l 1,3,4
 250 0 250 0 0 0 c 1,5,6
 0 0 0 0 0 875 c 1,7,8
 0 875 0 875 250 875 c 1,9,10
 250 875 250 875 250 500 c 1,11,-1
 375 500 l 1,12,-1
 375 625 l 1,13,14
 375 625 375 625 625 625 c 1,15,16
 625 625 625 625 625 375 c 1,17,-1
 500 375 l 1,18,-1
 500 250 l 1,19,-1
 625 250 l 1,20,21
 625 250 625 250 625 0 c 1,22,-1
 375 0 l 1,0,-1
EndSplineSet
EndChar

StartChar: l
Encoding: 108 108 79
Width: 500
GlyphClass: 2
Flags: W
LayerCount: 2
Fore
SplineSet
0 0 m 1,0,1
 0 0 0 0 0 875 c 1,2,3
 0 875 0 875 250 875 c 1,4,5
 250 875 250 875 250 250 c 1,6,-1
 375 250 l 1,7,8
 375 250 375 250 375 0 c 1,9,-1
 0 0 l 1,0,1
EndSplineSet
EndChar

StartChar: m
Encoding: 109 109 80
Width: 1000
GlyphClass: 2
Flags: W
LayerCount: 2
Fore
SplineSet
375 0 m 1,0,1
 375 0 375 0 375 375 c 1,2,-1
 250 375 l 1,3,4
 250 375 250 375 250 0 c 1,5,6
 250 0 250 0 0 0 c 1,7,8
 0 0 0 0 0 750 c 1,9,10
 0 750 0 750 750 750 c 1,11,-1
 750 625 l 1,12,-1
 875 625 l 1,13,14
 875 625 875 625 875 0 c 1,15,16
 875 0 875 0 625 0 c 1,17,18
 625 0 625 0 625 375 c 1,19,-1
 500 375 l 1,20,-1
 500 0 l 1,21,-1
 375 0 l 1,0,1
EndSplineSet
EndChar

StartChar: n
Encoding: 110 110 81
Width: 750
GlyphClass: 2
Flags: W
LayerCount: 2
Fore
SplineSet
375 0 m 1,0,1
 375 0 375 0 375 375 c 1,2,-1
 250 375 l 1,3,4
 250 375 250 375 250 0 c 1,5,6
 250 0 250 0 0 0 c 1,7,8
 0 0 0 0 0 750 c 1,9,10
 0 750 0 750 500 750 c 1,11,-1
 500 625 l 1,12,-1
 625 625 l 1,13,14
 625 625 625 625 625 0 c 1,15,-1
 375 0 l 1,0,1
EndSplineSet
EndChar

StartChar: o
Encoding: 111 111 82
Width: 750
GlyphClass: 2
Flags: W
LayerCount: 2
Fore
SplineSet
125 0 m 1,0,-1
 125 125 l 1,1,-1
 0 125 l 1,2,3
 0 125 0 125 0 625 c 1,4,-1
 125 625 l 1,5,-1
 125 750 l 1,6,7
 125 750 125 750 500 750 c 1,8,-1
 500 625 l 1,9,-1
 625 625 l 1,10,11
 625 625 625 625 625 125 c 1,12,-1
 500 125 l 1,13,-1
 500 0 l 1,14,-1
 125 0 l 1,0,-1
375 250 m 1,15,16
 375 250 375 250 375 500 c 1,17,-1
 250 500 l 1,18,19
 250 500 250 500 250 250 c 1,20,-1
 375 250 l 1,15,16
EndSplineSet
EndChar

StartChar: p
Encoding: 112 112 83
Width: 750
GlyphClass: 2
Flags: W
LayerCount: 2
Fore
SplineSet
0 0 m 1,0,1
 0 0 0 0 0 875 c 1,2,3
 0 875 0 875 500 875 c 1,4,-1
 500 750 l 1,5,-1
 625 750 l 1,6,7
 625 750 625 750 625 250 c 1,8,-1
 500 250 l 1,9,-1
 500 125 l 1,10,11
 500 125 500 125 250 125 c 1,12,-1
 250 0 l 1,13,-1
 0 0 l 1,0,1
375 375 m 1,14,15
 375 375 375 375 375 625 c 1,16,-1
 250 625 l 1,17,18
 250 625 250 625 250 375 c 1,19,-1
 375 375 l 1,14,15
EndSplineSet
EndChar

StartChar: q
Encoding: 113 113 84
Width: 750
GlyphClass: 2
Flags: W
LayerCount: 2
Fore
SplineSet
500 0 m 1,0,-1
 375 0 l 1,1,-1
 375 125 l 1,2,3
 375 125 375 125 125 125 c 1,4,-1
 125 250 l 1,5,-1
 0 250 l 1,6,7
 0 250 0 250 0 750 c 1,8,-1
 125 750 l 1,9,-1
 125 875 l 1,10,11
 125 875 125 875 625 875 c 1,12,-1
 625 0 l 1,13,-1
 500 0 l 1,0,-1
375 375 m 1,14,15
 375 375 375 375 375 625 c 1,16,-1
 250 625 l 1,17,18
 250 625 250 625 250 375 c 1,19,-1
 375 375 l 1,14,15
EndSplineSet
EndChar

StartChar: r
Encoding: 114 114 85
Width: 625
GlyphClass: 2
Flags: W
LayerCount: 2
Fore
SplineSet
0 0 m 1,0,1
 0 0 0 0 0 750 c 1,2,3
 0 750 0 750 500 750 c 1,4,5
 500 750 500 750 500 500 c 1,6,7
 500 500 500 500 250 500 c 1,8,9
 250 500 250 500 250 0 c 1,10,-1
 0 0 l 1,0,1
EndSplineSet
EndChar

StartChar: s
Encoding: 115 115 86
Width: 625
GlyphClass: 2
Flags: W
LayerCount: 2
Fore
SplineSet
0 0 m 1,0,1
 0 0 0 0 0 250 c 1,2,3
 0 250 0 250 250 250 c 1,4,-1
 250 375 l 1,5,6
 250 375 250 375 500 375 c 1,7,8
 500 375 500 375 500 125 c 1,9,-1
 375 125 l 1,10,-1
 375 0 l 1,11,-1
 0 0 l 1,0,1
250 375 m 1,12,13
 250 375 250 375 0 375 c 1,14,15
 0 375 0 375 0 625 c 1,16,-1
 125 625 l 1,17,-1
 125 750 l 1,18,19
 125 750 125 750 500 750 c 1,20,21
 500 750 500 750 500 500 c 1,22,23
 500 500 500 500 250 500 c 1,24,-1
 250 375 l 1,12,13
EndSplineSet
EndChar

StartChar: t
Encoding: 116 116 87
Width: 625
GlyphClass: 2
Flags: W
LayerCount: 2
Fore
SplineSet
125 0 m 1,0,-1
 125 125 l 1,1,-1
 0 125 l 1,2,3
 0 125 0 125 0 875 c 1,4,5
 0 875 0 875 250 875 c 1,6,-1
 250 750 l 1,7,8
 250 750 250 750 500 750 c 1,9,10
 500 750 500 750 500 500 c 1,11,12
 500 500 500 500 250 500 c 1,13,14
 250 500 250 500 250 250 c 1,15,16
 250 250 250 250 500 250 c 1,17,18
 500 250 500 250 500 0 c 1,19,-1
 125 0 l 1,0,-1
EndSplineSet
EndChar

StartChar: u
Encoding: 117 117 88
Width: 750
GlyphClass: 2
Flags: W
LayerCount: 2
Fore
SplineSet
125 0 m 1,0,-1
 125 125 l 1,1,-1
 0 125 l 1,2,3
 0 125 0 125 0 750 c 1,4,5
 0 750 0 750 250 750 c 1,6,7
 250 750 250 750 250 250 c 1,8,-1
 375 250 l 1,9,10
 375 250 375 250 375 750 c 1,11,12
 375 750 375 750 625 750 c 1,13,14
 625 750 625 750 625 0 c 1,15,-1
 125 0 l 1,0,-1
EndSplineSet
EndChar

StartChar: v
Encoding: 118 118 89
Width: 750
GlyphClass: 2
Flags: W
LayerCount: 2
Fore
SplineSet
250 0 m 1,0,-1
 250 125 l 1,1,-1
 125 125 l 1,2,-1
 125 250 l 1,3,-1
 0 250 l 1,4,5
 0 250 0 250 0 750 c 1,6,7
 0 750 0 750 250 750 c 1,8,9
 250 750 250 750 250 375 c 1,10,-1
 375 375 l 1,11,12
 375 375 375 375 375 750 c 1,13,14
 375 750 375 750 625 750 c 1,15,-1
 625 250 l 1,16,-1
 500 250 l 1,17,-1
 500 125 l 1,18,-1
 375 125 l 1,19,-1
 375 0 l 1,20,-1
 250 0 l 1,0,-1
EndSplineSet
EndChar

StartChar: w
Encoding: 119 119 90
Width: 875
GlyphClass: 2
Flags: W
LayerCount: 2
Fore
SplineSet
625 0 m 1,0,-1
 625 125 l 1,1,-1
 500 125 l 1,2,-1
 500 250 l 1,3,4
 500 250 500 250 250 250 c 1,5,-1
 250 125 l 1,6,-1
 125 125 l 1,7,-1
 125 0 l 1,8,-1
 0 0 l 1,9,10
 0 0 0 0 0 750 c 1,11,12
 0 750 0 750 250 750 c 1,13,14
 250 750 250 750 250 500 c 1,15,16
 250 500 250 500 500 500 c 1,17,18
 500 500 500 500 500 750 c 1,19,20
 500 750 500 750 750 750 c 1,21,-1
 750 0 l 1,22,-1
 625 0 l 1,0,-1
EndSplineSet
EndChar

StartChar: x
Encoding: 120 120 91
Width: 875
GlyphClass: 2
Flags: W
LayerCount: 2
Fore
SplineSet
500 0 m 1,0,-1
 500 125 l 1,1,-1
 375 125 l 1,2,-1
 375 250 l 1,3,-1
 250 250 l 1,4,5
 250 250 250 250 250 0 c 1,6,7
 250 0 250 0 0 0 c 1,8,9
 0 0 0 0 0 250 c 1,10,11
 0 250 0 250 250 250 c 1,12,-1
 250 375 l 1,13,-1
 125 375 l 1,14,-1
 125 500 l 1,15,-1
 0 500 l 1,16,17
 0 500 0 500 0 750 c 1,18,19
 0 750 0 750 250 750 c 1,20,-1
 250 625 l 1,21,-1
 375 625 l 1,22,-1
 375 500 l 1,23,-1
 500 500 l 1,24,-1
 500 375 l 1,25,-1
 625 375 l 1,26,-1
 625 250 l 1,27,-1
 750 250 l 1,28,29
 750 250 750 250 750 0 c 1,30,-1
 500 0 l 1,0,-1
500 500 m 1,31,32
 500 500 500 500 500 750 c 1,33,34
 500 750 500 750 750 750 c 1,35,36
 750 750 750 750 750 500 c 1,37,38
 750 500 750 500 500 500 c 1,31,32
EndSplineSet
EndChar

StartChar: y
Encoding: 121 121 92
Width: 750
GlyphClass: 2
Flags: W
LayerCount: 2
Fore
SplineSet
0 0 m 1,0,1
 0 0 0 0 0 250 c 1,2,3
 0 250 0 250 375 250 c 1,4,-1
 375 375 l 1,5,6
 375 375 375 375 125 375 c 1,7,-1
 125 500 l 1,8,-1
 0 500 l 1,9,10
 0 500 0 500 0 875 c 1,11,12
 0 875 0 875 250 875 c 1,13,14
 250 875 250 875 250 625 c 1,15,-1
 375 625 l 1,16,17
 375 625 375 625 375 875 c 1,18,19
 375 875 375 875 625 875 c 1,20,21
 625 875 625 875 625 125 c 1,22,-1
 500 125 l 1,23,-1
 500 0 l 1,24,-1
 0 0 l 1,0,1
EndSplineSet
EndChar

StartChar: z
Encoding: 122 122 93
Width: 750
GlyphClass: 2
Flags: W
LayerCount: 2
Fore
SplineSet
0 0 m 1,0,1
 0 0 0 0 0 250 c 1,2,-1
 125 250 l 1,3,-1
 125 375 l 1,4,-1
 250 375 l 1,5,-1
 250 500 l 1,6,7
 250 500 250 500 0 500 c 1,8,9
 0 500 0 500 0 750 c 1,10,11
 0 750 0 750 625 750 c 1,12,13
 625 750 625 750 625 500 c 1,14,-1
 500 500 l 1,15,-1
 500 375 l 1,16,-1
 375 375 l 1,17,-1
 375 250 l 1,18,19
 375 250 375 250 625 250 c 1,20,21
 625 250 625 250 625 0 c 1,22,-1
 0 0 l 1,0,1
EndSplineSet
EndChar

StartChar: braceleft
Encoding: 123 123 94
Width: 625
GlyphClass: 2
Flags: W
LayerCount: 2
Fore
SplineSet
250 0 m 1,0,-1
 250 125 l 1,1,-1
 125 125 l 1,2,3
 125 125 125 125 125 375 c 1,4,-1
 0 375 l 1,5,6
 0 375 0 375 0 625 c 1,7,-1
 125 625 l 1,8,9
 125 625 125 625 125 875 c 1,10,-1
 250 875 l 1,11,-1
 250 1000 l 1,12,13
 250 1000 250 1000 500 1000 c 1,14,15
 500 1000 500 1000 500 750 c 1,16,-1
 375 750 l 1,17,18
 375 750 375 750 375 250 c 1,19,-1
 500 250 l 1,20,21
 500 250 500 250 500 0 c 1,22,-1
 250 0 l 1,0,-1
EndSplineSet
EndChar

StartChar: bar
Encoding: 124 124 95
Width: 375
GlyphClass: 2
Flags: W
LayerCount: 2
Fore
SplineSet
0 0 m 1,0,1
 0 0 0 0 0 1000 c 1,2,3
 0 1000 0 1000 250 1000 c 1,4,5
 250 1000 250 1000 250 0 c 1,6,-1
 0 0 l 1,0,1
EndSplineSet
EndChar

StartChar: braceright
Encoding: 125 125 96
Width: 625
GlyphClass: 2
Flags: W
LayerCount: 2
Fore
SplineSet
0 0 m 1,0,1
 0 0 0 0 0 250 c 1,2,-1
 125 250 l 1,3,4
 125 250 125 250 125 750 c 1,5,-1
 0 750 l 1,6,7
 0 750 0 750 0 1000 c 1,8,9
 0 1000 0 1000 250 1000 c 1,10,-1
 250 875 l 1,11,-1
 375 875 l 1,12,13
 375 875 375 875 375 625 c 1,14,-1
 500 625 l 1,15,16
 500 625 500 625 500 375 c 1,17,-1
 375 375 l 1,18,19
 375 375 375 375 375 125 c 1,20,-1
 250 125 l 1,21,-1
 250 0 l 1,22,-1
 0 0 l 1,0,1
EndSplineSet
EndChar

StartChar: asciitilde
Encoding: 126 126 97
Width: 875
GlyphClass: 2
Flags: W
LayerCount: 2
Fore
SplineSet
375 250 m 1,0,-1
 375 375 l 1,1,-1
 250 375 l 1,2,-1
 250 250 l 1,3,4
 250 250 250 250 0 250 c 1,5,6
 0 250 0 250 0 500 c 1,7,-1
 125 500 l 1,8,-1
 125 625 l 1,9,10
 125 625 125 625 375 625 c 1,11,-1
 375 500 l 1,12,-1
 500 500 l 1,13,-1
 500 625 l 1,14,15
 500 625 500 625 750 625 c 1,16,17
 750 625 750 625 750 375 c 1,18,-1
 625 375 l 1,19,-1
 625 250 l 1,20,-1
 375 250 l 1,0,-1
EndSplineSet
EndChar

